<svg xmlns="http://www.w3.org/2000/svg" width="1920" height="1080" viewBox="0 0 1920 1080" preserveAspectRatio="xMidYMid slice">
  <defs>
    <linearGradient id="g1" x1="0" y1="0" x2="1" y2="1">
      <stop offset="0%" stop-color="#0f172a"/>
      <stop offset="50%" stop-color="#0b2e2e"/>
      <stop offset="100%" stop-color="#111827"/>
    </linearGradient>
    <linearGradient id="accent" x1="0" y1="0" x2="1" y2="0">
      <stop offset="0%" stop-color="#27C1A7" stop-opacity="0.8"/>
      <stop offset="100%" stop-color="#22d3ee" stop-opacity="0.6"/>
    </linearGradient>
    <filter id="blur" x="-20%" y="-20%" width="140%" height="140%">
      <feGaussianBlur stdDeviation="60"/>
    </filter>
  </defs>
  <rect width="100%" height="100%" fill="url(#g1)"/>
  <g filter="url(#blur)">
    <path d="M-100 780 C 220 640, 380 980, 700 860 C 980 760, 1150 980, 1420 900 C 1680 830, 1820 980, 2020 880 L 2020 1180 L -100 1180 Z" fill="url(#accent)"/>
    <path d="M-120 320 C 180 220, 420 520, 760 420 C 1040 340, 1200 520, 1500 460 C 1780 410, 1980 580, 2100 520 L 2100 -100 L -120 -100 Z" fill="#34d399" fill-opacity="0.25"/>
    <circle cx="280" cy="240" r="220" fill="#27C1A7" opacity="0.18"/>
    <circle cx="1680" cy="820" r="260" fill="#22d3ee" opacity="0.16"/>
  </g>
</svg>




